<?xml version="1.0" standalone="no"?>
<!DOCTYPE svg PUBLIC "-//W3C//DTD SVG 20010904//EN"
 "http://www.w3.org/TR/2001/REC-SVG-20010904/DTD/svg10.dtd">
<svg version="1.0" xmlns="http://www.w3.org/2000/svg"
 width="128.000000pt" height="128.000000pt" viewBox="0 0 128.000000 128.000000"
 preserveAspectRatio="xMidYMid meet">
<metadata>
Created by potrace 1.14, written by Peter Selinger 2001-2017
</metadata>
<g transform="translate(0.000000,128.000000) scale(0.100000,-0.100000)"
fill="#000000" stroke="none">
<path d="M547 1273 c-1 0 -24 -4 -52 -7 -27 -3 -68 -10 -90 -16 -22 -5 -57
-12 -78 -15 -37 -5 -96 -30 -107 -45 -3 -3 -34 -24 -69 -45 -129 -79 -165
-177 -127 -340 9 -38 19 -80 22 -93 2 -12 13 -44 23 -70 10 -26 19 -73 19
-104 0 -52 3 -61 33 -89 92 -86 136 -122 168 -139 20 -10 63 -45 95 -78 47
-48 168 -134 196 -138 3 0 12 -4 20 -7 8 -4 35 -14 60 -23 190 -68 341 -79
416 -31 64 40 141 154 149 220 12 96 18 129 34 196 20 78 10 188 -21 248 -73
140 -126 245 -147 293 -56 128 -127 202 -220 230 -20 6 -45 15 -56 20 -32 14
-96 27 -145 30 -105 4 -122 5 -123 3z"/>
</g>
</svg>
